<svg xmlns="http://www.w3.org/2000/svg" viewBox="0 0 42.25 42.25"><title>ps</title><g id="Layer_2" data-name="Layer 2"><g id="home"><path d="M0,0V42.25H42.25V0ZM39.77,39.77H2.48V2.48H39.77Z" fill="#fff"/><path d="M17.58,15h-6V29.05h2.74V24.33h3.32a4.54,4.54,0,0,0,4.38-4.67A4.68,4.68,0,0,0,17.58,15Zm-.06,7H14.36V17.38h3.05a2.07,2.07,0,0,1,1.88,2.28C19.29,21,18.48,21.94,17.52,21.94Z" fill="#fff"/><path d="M27.8,22.83c-.38-.1-2-.37-2-1.31,0-.76.62-1.17,1.59-1.17a5.37,5.37,0,0,1,3,1.15l1.07-1.6a5.76,5.76,0,0,0-4.06-1.43c-2.17,0-4.08,1.23-4.08,3.43s3,2.7,3.7,2.89,2.28.51,2.28,1.4c0,.73-.7,1.15-1.7,1.15A6.87,6.87,0,0,1,23.92,26l-1,1.66a7.52,7.52,0,0,0,4.69,1.6c1.3,0,4.2-.4,4.2-3.28C31.82,23.52,28.52,23,27.8,22.83Z" fill="#fff"/></g></g></svg>