<svg xmlns="http://www.w3.org/2000/svg" viewBox="0 0 42.25 42.25"><title>xd</title><g id="Layer_2" data-name="Layer 2"><g id="home"><polygon points="22.03 14.98 19.08 14.98 15.59 20.21 12.09 14.98 9.12 14.98 14.13 22.11 9.27 29.05 12.24 29.05 15.59 24.02 18.92 29.05 21.87 29.05 17.02 22.11 22.03 14.98" fill="#fff"/><path d="M0,0V42.25H42.25V0ZM39.77,39.77H2.48V2.48H39.77Z" fill="#fff"/><path d="M32.74,26V14.59H30.09v5.9a4,4,0,0,0-3.51-2c-2.46,0-4.63,2.14-4.63,5.37,0,2.84,1.88,5.38,4.93,5.38a4.14,4.14,0,0,0,3.6-2,1.72,1.72,0,0,0,1.75,1.94,6,6,0,0,0,1.12-.13V26.79A1.07,1.07,0,0,1,32.74,26Zm-2.65-.76A2.86,2.86,0,0,1,27.57,27a3,3,0,0,1-2.87-3.07c0-1.38.91-3.17,2.71-3.17,1.62,0,2.57,1.73,2.68,2Z" fill="#fff"/></g></g></svg>