<svg xmlns="http://www.w3.org/2000/svg" viewBox="0 0 74.46 74.46"><title>logosymbol</title><g id="Layer_2" data-name="Layer 2"><g id="footbar"><path d="M37.39,61.22l-1.71-1.55c-6.41-5.79-12.63-11.93-18.5-18.27a6.26,6.26,0,0,1,0-8.34C19.73,30.31,22.35,27.59,25,25l1.63-1.63L47.85,44.58c2-2.07,4.06-4.19,6-6.32a1.62,1.62,0,0,0,0-2.07c-2.5-2.7-5.08-5.38-7.66-8L44.59,26.6l3.27-3.26L49.49,25c2.62,2.62,5.24,5.34,7.78,8.08a6.29,6.29,0,0,1,0,8.35c-2.54,2.74-5.16,5.46-7.79,8.09l-1.63,1.63L26.61,29.87c-2,2.07-4.06,4.19-6,6.32a1.64,1.64,0,0,0,0,2.08c5.77,6.23,11.89,12.28,18.2,18l1.71,1.54Z" fill="#fff"/><rect x="25.23" y="42.23" width="9.39" height="4.62" transform="translate(-22.73 34.22) rotate(-45.01)" fill="#fff"/><rect x="39.84" y="27.61" width="9.39" height="4.62" transform="translate(-8.12 40.24) rotate(-44.99)" fill="#fff"/><path d="M41,23.16c-1.25-1.19-2.52-2.37-3.79-3.54C36,20.79,34.69,22,33.44,23.16l-3.18-3.35c1.78-1.7,3.59-3.37,5.42-5l1.55-1.39,1.55,1.39c1.83,1.66,3.63,3.33,5.42,5Z" fill="#fff"/><path d="M37.23,74.46l-1.35-1A152.79,152.79,0,0,1,1,38.58L0,37.23l1-1.35A152.59,152.59,0,0,1,35.88,1l1.35-1,1.35,1A152.59,152.59,0,0,1,73.49,35.88l1,1.35-1,1.35A152.79,152.79,0,0,1,38.58,73.49ZM5.7,37.23A148,148,0,0,0,37.23,68.76,148.22,148.22,0,0,0,68.76,37.23,148,148,0,0,0,37.23,5.7,147.76,147.76,0,0,0,5.7,37.23Z" fill="#fff"/></g></g></svg>