<svg xmlns="http://www.w3.org/2000/svg" viewBox="0 0 33.15 20.72"><title>Behance</title><g id="Layer_2" data-name="Layer 2"><g id="navbar"><path d="M13.64,9.37A5,5,0,0,0,15.2,8.22a4.44,4.44,0,0,0,.95-3,5.08,5.08,0,0,0-.94-3.09C14.17.75,12.4,0,9.9,0H0V20.21H9.23a14.56,14.56,0,0,0,2.89-.27,5.77,5.77,0,0,0,2.32-1,5.66,5.66,0,0,0,1.45-1.59,5.82,5.82,0,0,0,.91-3.22,5.29,5.29,0,0,0-.79-3A4.61,4.61,0,0,0,13.64,9.37ZM4.08,3.51H8.54A8.14,8.14,0,0,1,11,3.82a1.81,1.81,0,0,1,1.1,1.87,1.9,1.9,0,0,1-.83,1.78A4.22,4.22,0,0,1,9.06,8h-5Zm7.05,12.84a5,5,0,0,1-2.07.35h-5V11.31H9.13a5.28,5.28,0,0,1,2,.34,2.18,2.18,0,0,1,1.3,2.17A2.56,2.56,0,0,1,11.13,16.35Z" fill="#fff"/><rect x="21.18" y="0.94" width="8.78" height="2.52" fill="#fff"/><path d="M33,10.87A7.14,7.14,0,0,0,31.8,7.78a6.05,6.05,0,0,0-2.61-2.21,8.68,8.68,0,0,0-3.57-.7,7.34,7.34,0,0,0-5.41,2.07,8,8,0,0,0-2.09,6c0,2.76.77,4.76,2.32,6a8.26,8.26,0,0,0,5.33,1.84,7.44,7.44,0,0,0,5.7-2.18,4.9,4.9,0,0,0,1.47-2.7h-4a3.2,3.2,0,0,1-.81,1,3.44,3.44,0,0,1-2.2.68A4.12,4.12,0,0,1,23.69,17a3.58,3.58,0,0,1-1.58-3.15h11A18.41,18.41,0,0,0,33,10.87Zm-10.8.39a4,4,0,0,1,1.05-2.32,3.21,3.21,0,0,1,2.37-.85,3.56,3.56,0,0,1,2.35.8A3.26,3.26,0,0,1,29,11.26Z" fill="#fff"/></g></g></svg>