<svg xmlns="http://www.w3.org/2000/svg" viewBox="0 0 26.5 25.95"><title>github</title><g id="Layer_2" data-name="Layer 2"><g id="navbar"><path d="M13.25,0A13.31,13.31,0,0,0,9.06,25.93c.67.12.91-.29.91-.64s0-1.15,0-2.26c-3.68.8-4.46-1.79-4.46-1.79A3.46,3.46,0,0,0,4,19.3c-1.21-.83.08-.81.08-.81a2.75,2.75,0,0,1,2,1.37A2.82,2.82,0,0,0,10,21a2.86,2.86,0,0,1,.84-1.78c-2.94-.33-6-1.47-6-6.57A5.14,5.14,0,0,1,6.16,9a4.79,4.79,0,0,1,.13-3.52S7.4,5.16,9.94,6.88a13,13,0,0,1,3.31-.45,13.1,13.1,0,0,1,3.32.45c2.53-1.72,3.64-1.36,3.64-1.36A4.81,4.81,0,0,1,20.35,9a5.14,5.14,0,0,1,1.36,3.57c0,5.11-3.1,6.24-6.05,6.57a3.19,3.19,0,0,1,.9,2.46c0,1.78,0,3.21,0,3.65s.24.77.91.64A13.32,13.32,0,0,0,13.25,0Z" fill="#fff"/></g></g></svg>