<svg xmlns="http://www.w3.org/2000/svg" viewBox="0 0 26.5 26.5"><title>instagram</title><g id="Layer_2" data-name="Layer 2"><g id="navbar"><path d="M18.22,0H8.28A8.28,8.28,0,0,0,0,8.28v9.94A8.28,8.28,0,0,0,8.28,26.5h9.94a8.27,8.27,0,0,0,8.28-8.28V8.28A8.28,8.28,0,0,0,18.22,0ZM24,18.22a5.8,5.8,0,0,1-5.8,5.8H8.28a5.81,5.81,0,0,1-5.8-5.8V8.28a5.82,5.82,0,0,1,5.8-5.8h9.94A5.81,5.81,0,0,1,24,8.28Z" fill="#fff"/><path d="M13.25,5.59a6.63,6.63,0,1,0,6.63,6.63A6.62,6.62,0,0,0,13.25,5.59Zm0,10.77a4.14,4.14,0,1,1,4.14-4.14A4.15,4.15,0,0,1,13.25,16.36Z" fill="#fff"/><circle cx="20.38" cy="5.09" r="0.88" fill="#fff"/></g></g></svg>