<svg xmlns="http://www.w3.org/2000/svg" viewBox="0 0 26.5 26.5"><title>spotify</title><g id="Layer_2" data-name="Layer 2"><g id="navbar"><path d="M13.25,0A13.25,13.25,0,1,0,26.5,13.25,13.27,13.27,0,0,0,13.25,0Zm6.08,19.13a.83.83,0,0,1-1.15.2C15.07,17.15,9.91,17,6.42,17.84A.83.83,0,1,1,6,16.23c3.84-.89,9.57-.73,13.09,1.75A.83.83,0,0,1,19.33,19.13ZM21,15.9a.84.84,0,0,1-.67.34.88.88,0,0,1-.49-.15c-3.6-2.59-8-3.23-13.93-2a.83.83,0,0,1-.34-1.62c6.39-1.3,11.23-.57,15.24,2.3A.83.83,0,0,1,21,15.9Zm1.63-4.34a.84.84,0,0,1-.68.36.89.89,0,0,1-.47-.14c-4.57-3.1-11.51-3.12-16-1.53a.83.83,0,1,1-.55-1.56C9.76,7,17.34,7,22.36,10.41A.82.82,0,0,1,22.58,11.56Z" fill="#fff"/></g></g></svg>